Coordinates
version=1
nRows=19
nColumns=36
inDegrees=yes

Units are S.I. units (second, meters, Newtons, ...)
If the header above contains a line with 'inDegrees', this indicates whether rotational values are in degrees (yes) or radians (no).

endheader
time	pelvis_tilt	pelvis_list	pelvis_rotation	pelvis_tx	pelvis_ty	pelvis_tz	hip_flexion_r	hip_adduction_r	hip_rotation_r	knee_angle_r	knee_angle_r_beta	ankle_angle_r	subtalar_angle_r	mtp_angle_r	hip_flexion_l	hip_adduction_l	hip_rotation_l	knee_angle_l	knee_angle_l_beta	ankle_angle_l	subtalar_angle_l	mtp_angle_l	lumbar_extension	lumbar_bending	lumbar_rotation	arm_flex_r	arm_add_r	arm_rot_r	elbow_flex_r	pro_sup_r	arm_flex_l	arm_add_l	arm_rot_l	elbow_flex_l	pro_sup_l
      3.50000000	     16.55463834	     -2.49715393	      2.03350939	      1.44188831	      0.99591401	     -0.32417747	    -14.99201970	     -3.48809591	     -2.91146262	     15.29533195	      0.26695390	     26.64462770	      7.64631813	     -7.49999987	    -18.66400486	    -11.40681057	     -7.63567258	      9.77422815	      0.17059246	     22.29926807	      6.91576956	     -7.49999987	    -34.60043468	      4.00018974	      1.90034191	      5.26340854	    -15.45763279	      7.04981559	     10.38438014	     86.13408954	      1.88548172	    -12.12761172	     -1.58496034	     17.40282243	     85.45440567
      3.51666670	     16.59882557	     -2.50592493	      2.06715873	      1.44127464	      0.99624811	     -0.32434430	    -15.11357845	     -3.48631120	     -2.96058755	     15.20390400	      0.26535818	     26.57277750	      7.75052302	     -7.49999987	    -18.80266181	    -11.36163402	     -7.30347383	      9.64739058	      0.16837873	     22.01006712	      6.42207189	     -7.49999987	    -34.60900624	      4.05119536	      2.03570140	      4.96822762	    -15.51122994	      7.01370994	     10.49107313	     84.21338170	      1.77997251	    -12.04268987	     -1.61413989	     18.05849731	     83.52616211
      3.53333330	     16.64814601	     -2.50965897	      2.00345879	      1.44128821	      0.99556762	     -0.32428536	    -15.14740749	     -3.48617000	     -2.74525399	     15.28766506	      0.26682009	     26.57055205	      7.49010025	     -7.49999987	    -18.85615413	    -11.33774082	     -7.36820379	      9.76595633	      0.17044809	     22.12370618	      6.44083122	     -7.49999987	    -34.56177306	      4.04505817	      2.04094989	      5.23599951	    -15.49379099	      6.07973469	     10.27022960	     90.48315597	      2.02673805	    -11.98849436	     -2.34286816	     17.55067194	     89.57841072
      3.55000000	     16.62211258	     -2.50770829	      1.99221085	      1.44073587	      0.99588361	     -0.32431829	    -15.09074911	     -3.49312306	     -2.64490193	     15.34547502	      0.26782906	     26.54752977	      7.36213459	     -7.49999987	    -18.80133254	    -11.31375247	     -7.29889892	      9.83820922	      0.17170914	     22.16003572	      6.32728519	     -7.49999987	    -34.50532680	      4.06152519	      2.09159526	      5.43367189	    -15.52289532	      7.58672154	     10.19329927	     89.26590627	      2.17113409	    -11.99904788	     -0.83275212	     17.43651697	     88.19306061
      3.56666670	     16.64384697	     -2.49194271	      2.00621728	      1.44086241	      0.99546863	     -0.32436868	    -15.08979121	     -3.52147637	     -2.67742042	     15.40961452	      0.26894851	     26.55847431	      7.29212814	     -7.49999987	    -18.79055000	    -11.27646420	     -7.10547265	      9.92632742	      0.17324710	     22.15473391	      6.10147305	     -7.49999987	    -34.63398877	      4.05764323	      2.11200833	      5.52667794	    -15.53806666	      7.75532424	     10.88370074	     88.11784284	      2.31715340	    -11.86369234	     -0.68143070	     17.83446393	     87.06156719
      3.58333330	     16.50642684	     -2.50589171	      1.95117187	      1.44047655	      0.99565808	     -0.32435307	    -14.86006308	     -3.52289007	     -2.49755309	     15.54278874	      0.27127284	     26.60290608	      7.20986865	     -7.49999987	    -18.57301351	    -11.28060782	     -7.22585125	     10.08693315	      0.17605019	     22.23726654	      6.22022910	     -7.49999987	    -34.46304451	      4.11175403	      1.91862219	      6.11397116	    -15.51078501	     10.17482412	     10.40788339	     87.95760138	      2.66035478	    -11.86772060	      1.41186748	     17.29156617	     86.61763711
      3.60000000	     16.46659024	     -2.52074327	      1.97012078	      1.44102824	      0.99724331	     -0.32409330	    -14.82449528	     -3.50348444	     -2.48284762	     15.53327523	      0.27110680	     26.57019771	      7.14731255	     -7.49999987	    -18.53777548	    -11.28387915	     -7.16446433	     10.07058942	      0.17576494	     22.15197839	      6.09511864	     -7.49999987	    -34.41602525	      4.17494248	      1.68181327	      6.45515549	    -15.32888112	     10.47108332	     10.88883547	     85.79678655	      2.77453583	    -11.68254635	      1.70137289	     18.00180961	     84.49800785
      3.61666670	     16.29832109	     -2.56748134	      2.01637940	      1.44092560	      0.99482432	     -0.32393689	    -14.59813693	     -3.44021195	     -2.39840398	     15.63323498	      0.27285142	     26.54298213	      6.97807690	     -7.49999987	    -18.28691393	    -11.36812018	     -7.22589891	     10.22403645	      0.17844310	     22.19864272	      6.19750980	     -7.49999987	    -34.18119129	      4.29677092	      1.50696501	      6.96016622	    -15.21338841	     11.90082165	     11.22673206	     85.40566813	      3.23545173	    -11.54256293	      3.20282920	     18.00495265	     84.12945048
      3.63333330	     16.31535170	     -2.55340050	      2.02563624	      1.44536128	      0.99283883	     -0.32685957	    -14.73106637	     -3.47154809	     -2.43088757	     15.53862008	      0.27120008	     26.58895766	      6.96300046	     -7.49999987	    -18.39865107	    -11.31970409	     -7.21637115	     10.20312604	      0.17807814	     22.18888244	      6.17019406	     -7.49999987	    -33.87751312	      4.29276595	      1.56064350	      7.35908705	    -14.97897539	     11.93658433	     11.45061353	     85.42983461	      3.47200732	    -11.18072565	      3.27237391	     18.14468613	     84.15830600
      3.65000000	     16.47850518	     -2.53480435	      2.17489754	      1.44481118	      0.99350372	     -0.32713364	    -15.19076729	     -3.47562370	     -2.63329293	     15.12208082	      0.26393010	     26.49331656	      7.08712369	     -7.49999987	    -18.75315824	    -11.26339929	     -6.84264956	      9.89063220	      0.17262410	     21.94230697	      5.78911030	     -7.49999987	    -33.90336553	      4.43647036	      0.99760212	      7.87983324	    -15.05202549	     14.83853812	     12.55793386	     85.87369548	      3.46893081	    -11.08973841	      5.90918772	     18.21948374	     84.29434985
      3.66666670	     16.58471579	     -2.49420122	      2.27997831	      1.44504363	      0.99575387	     -0.32744858	    -15.51422756	     -3.49700991	     -2.73154229	     14.86204127	      0.25939155	     26.45000467	      7.06020419	     -7.49999987	    -18.97070528	    -11.20737657	     -6.60240093	      9.73101384	      0.16983823	     21.80486479	      5.62005379	     -7.49999987	    -33.90751465	      4.48619099	      0.73412728	      8.25832487	    -14.86703089	     15.02490584	     13.21534453	     83.67646991	      3.36076116	    -10.77106647	      6.09008280	     18.69704728	     82.11189173
      3.68333330	     16.61767491	     -2.53532017	      2.32233156	      1.44872490	      0.99395666	     -0.32479330	    -15.83384718	     -3.39516364	     -2.69319660	     14.49437727	      0.25297461	     26.38904382	      6.96750028	     -7.49999987	    -19.19521361	    -11.25203580	     -6.59534232	      9.52719664	      0.16628095	     21.66883963	      5.64907178	     -7.49999987	    -33.56938091	      4.55409214	      0.71059311	      8.52908599	    -14.64819643	     15.20657889	     13.36459335	     83.83971472	      3.38455484	    -10.44369708	      6.26960113	     18.55399883	     82.23630786
      3.70000000	     16.87201673	     -2.53006290	      2.40751585	      1.44847322	      0.99382785	     -0.32488293	    -16.32455377	     -3.33012798	     -2.70688244	     14.23364358	      0.24842395	     26.32422132	      6.82235743	     -7.49999987	    -19.59909235	    -11.27881531	     -6.53515594	      9.37277324	      0.16358575	     21.52725700	      5.56694728	     -7.49999987	    -33.65793780	      4.57385233	      0.62011463	      9.01895121	    -14.40666185	     15.70540444	     13.31648334	     83.00179228	      3.71761470	    -10.21818491	      6.70792900	     18.52641692	     81.26415916
      3.71666670	     16.90701321	     -2.55385075	      2.42508283	      1.44807307	      0.99420307	     -0.32495169	    -16.53841672	     -3.27352774	     -2.74575501	     14.02127871	      0.24471748	     26.27488107	      6.80809727	     -7.49999987	    -19.80276658	    -11.30344448	     -6.50364284	      9.18754519	      0.16035291	     21.41907375	      5.56472332	     -7.49999987	    -33.43425245	      4.61860989	      0.51338164	      9.53609762	    -14.29510385	     17.24334332	     13.08424152	     83.16309481	      4.12730408	    -10.10938261	      8.25568721	     17.92649732	     81.13231775
      3.73333330	     16.99385063	     -2.61670673	      2.41400212	      1.44831477	      0.99594591	     -0.32453621	    -16.81488398	     -3.14154691	     -2.50957903	     13.73791198	      0.23977180	     26.06915126	      6.37960647	     -7.49999987	    -20.08986308	    -11.37282675	     -6.59089789	      8.92720775	      0.15580917	     21.30809059	      5.63169659	     -7.49999987	    -33.37259709	      4.65358720	      0.43502763	      9.87895816	    -14.28196101	     19.06703696	     13.25251324	     83.13206628	      4.24793188	    -10.16480000	      9.62531691	     18.26604648	     80.50903240
      3.75000000	     16.98883769	     -2.62417345	      2.48522439	      1.44804448	      0.99619804	     -0.32477098	    -16.95671524	     -3.09110791	     -2.61819798	     13.52134392	      0.23599197	     25.96640295	      6.36494188	     -7.49999987	    -20.16013041	    -11.37825781	     -6.27288248	      8.77736212	      0.15319387	     21.18276248	      5.22261264	     -7.49999987	    -33.29199563	      4.68616135	      0.15511214	     10.27694862	    -14.16465369	     18.68244700	     13.37669479	     86.18757867	      4.28251059	    -10.10233279	      9.09727669	     18.55593869	     82.61575682
      3.76666670	     16.98967575	     -2.63562889	      2.47266041	      1.44812743	      0.99576090	     -0.32478210	    -16.99061508	     -3.04016889	     -2.42938625	     13.48664911	      0.23538643	     25.96587559	      6.10578142	     -7.49999987	    -20.22727200	    -11.39450183	     -6.40817973	      8.66966483	      0.15131420	     21.25584289	      5.52255617	     -7.49999987	    -33.30547556	      4.65177973	      0.23232785	     10.43973316	    -14.10645201	     19.23750723	     13.47522789	     84.95444265	      4.44578722	    -10.06622180	      9.60583007	     18.70530153	     81.44773240
      3.78333330	     16.98014517	     -2.62143916	      2.55365897	      1.44772542	      0.99604786	     -0.32491913	    -17.02432561	     -3.01315914	     -2.45762475	     13.43090198	      0.23441346	     25.98125515	      6.01978630	     -7.49999987	    -20.21064398	    -11.40756403	     -6.28071843	      8.64102914	      0.15081441	     21.25429049	      5.41002635	     -7.49999987	    -33.30187643	      4.65028013	      0.22222650	     10.59792829	    -14.11089434	     20.15920309	     13.56059404	     83.39141166	      4.66111070	    -10.06612861	     10.51459787	     18.61390113	     80.04627537
      3.80000000	     16.92999067	     -2.57882871	      2.56583167	      1.44387987	      0.99522729	     -0.32739275	    -16.80446811	     -3.07534681	     -2.38552674	     13.68475213	      0.23884398	     25.99688377	      5.86382132	     -7.49999987	    -20.02955520	    -11.36606361	     -6.21863679	      8.78340739	      0.15329938	     21.38415338	      5.35190895	     -7.49999987	    -33.43894254	      4.63114017	      0.19420794	     10.81874191	    -14.13062981	     20.27097213	     13.67021528	     83.51128486	      4.88811275	    -10.09289202	     10.63566433	     18.84134417	     80.14898785
